<svg id="Icons" height="512" viewBox="0 0 74 74" width="512" xmlns="http://www.w3.org/2000/svg"><path d="m71 59.5h-68a1 1 0 0 1 -1-1v-43a1 1 0 0 1 1-1h68a1 1 0 0 1 1 1v43a1 1 0 0 1 -1 1zm-67-2h66v-41h-66z"/><path d="m37 41.751a12.95 12.95 0 0 1 -8.425-3.123l-26.224-22.367a1 1 0 0 1 1.3-1.521l26.222 22.366a10.937 10.937 0 0 0 14.255 0l26.223-22.367a1 1 0 0 1 1.3 1.521l-26.225 22.368a12.954 12.954 0 0 1 -8.426 3.123z"/><path d="m71 59.5a1 1 0 0 1 -.655-.245l-24.99-21.68a1 1 0 0 1 1.311-1.511l24.99 21.68a1 1 0 0 1 -.656 1.756z"/><path d="m3 59.5a1 1 0 0 1 -.655-1.755l24.99-21.68a1 1 0 0 1 1.311 1.511l-24.991 21.679a1 1 0 0 1 -.655.245z"/></svg>